<svg width="32" height="40" viewBox="0 0 32 40" fill="none" xmlns="http://www.w3.org/2000/svg">
<path d="M20.688 40.0001C20.6468 40.0001 20.6056 39.9979 20.5644 39.9932C20.0929 39.944 19.6992 39.6144 19.5641 39.16L16.657 29.1586C16.4967 28.6127 16.7508 28.0301 17.2613 27.7772C17.4696 27.673 17.6527 27.5551 17.8335 27.4063C18.1334 27.1591 18.534 27.079 18.907 27.1865C19.6487 27.4052 20.3102 27.3949 20.8665 27.159C21.4616 26.9187 21.9491 26.4426 22.3268 25.7398C22.51 25.4011 22.8464 25.1733 23.2264 25.1298C24.0459 25.0382 24.68 24.7727 25.1103 24.3412C25.2041 24.2485 25.3026 24.1341 25.3827 24.0207C25.6436 23.6579 26.0831 23.4759 26.5318 23.5457C26.9735 23.6201 27.3329 23.9394 27.4611 24.3686L30.8123 35.6902C30.9474 36.1457 30.794 36.6367 30.4255 36.9354C30.0569 37.2319 29.5396 37.2799 29.1276 37.0522L24.3207 34.4268L21.718 39.3867C21.512 39.7678 21.1137 40.0001 20.688 40.0001V40.0001Z" fill="#27282A"/>
<path d="M20.5794 39.8495L20.5805 39.8496C20.6162 39.8536 20.6521 39.8556 20.688 39.8556C21.061 39.8556 21.4099 39.652 21.5904 39.3187C21.5906 39.3185 21.5907 39.3182 21.5909 39.318L24.1927 34.3597L24.261 34.2295L24.39 34.3L29.1969 36.9253L29.1976 36.9257C29.5572 37.1245 30.011 37.0831 30.3346 36.8231C30.6578 36.5609 30.7921 36.1305 30.6737 35.7313L30.6737 35.7312L27.3226 24.41C27.3226 24.4099 27.3226 24.4099 27.3226 24.4098C27.2101 24.0335 26.8953 23.7539 26.5086 23.6884C26.1134 23.6272 25.7288 23.7873 25.5004 24.1046C25.5003 24.1048 25.5001 24.1049 25.5 24.1051L25.3827 24.0207C25.3026 24.1341 25.2041 24.2485 25.1103 24.3412C24.68 24.7727 24.0459 25.0382 23.2264 25.1298L20.5794 39.8495ZM20.5794 39.8495C20.1667 39.8064 19.8214 39.5179 19.7027 39.1193C19.7027 39.1191 19.7027 39.119 19.7026 39.1188L16.7958 29.1183L16.7957 29.1179C16.6551 28.6392 16.878 28.1284 17.3255 27.9067L17.3259 27.9064C17.5436 27.7976 17.7359 27.6738 17.9253 27.518L17.9254 27.5179C18.1878 27.3016 18.5387 27.231 18.8666 27.3253C19.6308 27.5505 20.3275 27.5442 20.9217 27.2926C21.555 27.0365 22.0649 26.5325 22.4541 25.8084C22.6149 25.5111 22.91 25.3116 23.2427 25.2734M20.5794 39.8495L23.2427 25.2734M23.2427 25.2734C24.083 25.1795 24.7518 24.9052 25.2123 24.4436L23.2427 25.2734Z" stroke="url(#paint0_linear_841_7393)" stroke-opacity="0.12" stroke-width="0.28909"/>
<path d="M11.3578 40C10.9321 40 10.5337 39.7677 10.3277 39.3866L7.72503 34.4268L2.91809 37.0523C2.5061 37.2801 1.98644 37.2321 1.62023 36.9344C1.25168 36.6357 1.09831 36.1448 1.2334 35.6892L4.58684 24.4145C4.71506 23.9853 5.07673 23.666 5.51849 23.5927C5.95338 23.5161 6.40436 23.7026 6.66532 24.0677C6.74088 24.1753 6.81643 24.2691 6.89425 24.3458C7.2971 24.7636 7.89458 25.0177 8.73005 25.1344C9.09173 25.1836 9.40988 25.3999 9.58841 25.717C9.98439 26.414 10.4628 26.8832 11.0122 27.1121C11.5936 27.3708 12.2689 27.3753 13.0357 27.143C13.4134 27.0286 13.8231 27.1121 14.1253 27.3639C14.3107 27.5185 14.5304 27.6626 14.8188 27.8183C15.3087 28.0815 15.5467 28.6515 15.3888 29.1837L12.4817 39.1611C12.3466 39.6154 11.9507 39.944 11.4791 39.9931C11.438 39.9978 11.3991 40 11.3578 40V40Z" fill="#27282A"/>
<path d="M7.78473 34.2295L7.85303 34.3596L10.4549 39.3178C10.455 39.3181 10.4551 39.3183 10.4553 39.3186C10.6359 39.652 10.9848 39.8555 11.3578 39.8555C11.3934 39.8555 11.4269 39.8536 11.4628 39.8495L11.4642 39.8493C11.8775 39.8063 12.2246 39.5183 12.3431 39.1202C12.3431 39.1201 12.3432 39.12 12.3432 39.1199L15.25 29.1433L15.2502 29.1426C15.3886 28.6762 15.1801 28.1765 14.7504 27.9456L14.7502 27.9455C14.456 27.7867 14.2276 27.6374 14.0327 27.4749M7.78473 34.2295L14.1253 27.3639M7.78473 34.2295L7.65574 34.2999L2.8488 36.9255L2.84816 36.9258C2.48824 37.1248 2.03227 37.083 1.71139 36.8223L1.71124 36.8221C1.38797 36.5601 1.25359 36.1297 1.37194 35.7304C1.37196 35.7303 1.37197 35.7303 1.37198 35.7303L4.72534 24.4559C4.72535 24.4558 4.72537 24.4558 4.72538 24.4557C4.83786 24.0794 5.15502 23.7995 5.54215 23.7353L5.54215 23.7353L5.54358 23.735C5.92243 23.6683 6.31812 23.8309 6.54738 24.1512C6.62543 24.2623 6.70601 24.363 6.79146 24.4475C7.2252 24.8965 7.85807 25.1585 8.71005 25.2776L8.71056 25.2776C9.02741 25.3208 9.30615 25.5103 9.46246 25.7879L9.46273 25.7884C9.86867 26.5029 10.3678 26.9998 10.955 27.2449M7.78473 34.2295L11.0122 27.1121M14.0327 27.4749L14.1253 27.3639M14.0327 27.4749C14.0327 27.475 14.0327 27.475 14.0327 27.475L14.1253 27.3639M14.0327 27.4749C13.7679 27.2543 13.4087 27.181 13.0776 27.2814L13.0776 27.2814C12.2886 27.5204 11.5764 27.5208 10.955 27.2449M14.1253 27.3639C13.8231 27.1121 13.4134 27.0286 13.0357 27.143C12.2689 27.3753 11.5936 27.3708 11.0122 27.1121M10.955 27.2449C10.9556 27.2451 10.9561 27.2453 10.9566 27.2455L11.0122 27.1121M10.955 27.2449C10.9545 27.2446 10.954 27.2444 10.9535 27.2442L11.0122 27.1121" stroke="url(#paint1_linear_841_7393)" stroke-opacity="0.12" stroke-width="0.28909"/>
<path d="M16 30.468C14.9492 30.468 14.0132 30.121 13.125 29.5363C12.0308 29.7675 11.0031 29.6737 10.0852 29.265C9.21759 28.9033 8.46229 28.2613 7.85106 27.3594C6.74775 27.1247 5.88251 26.6727 5.21869 25.986C4.50488 25.261 4.06999 24.3148 3.86591 23.318C2.94113 22.7092 2.28193 21.9286 1.90424 20.9913C1.53569 20.1111 1.45099 19.104 1.65476 18.059C1.06416 17.1618 0.764362 16.2129 0.764362 15.232C0.764362 14.2477 1.07799 13.284 1.69601 12.3593C1.46943 11.2594 1.55866 10.2396 1.96612 9.32053C2.32779 8.45069 2.97098 7.6953 3.87286 7.08298C4.10632 5.97967 4.55957 5.11443 5.24628 4.45062C5.92837 3.76961 6.82799 3.31183 7.91755 3.09549C8.52643 2.17298 9.30471 1.51604 10.2409 1.13725C11.1222 0.770966 12.1294 0.681739 13.1731 0.886602C14.9654 -0.297964 17.0279 -0.307106 18.8728 0.92895C19.9647 0.70346 21.0039 0.796203 21.9126 1.19788C22.7825 1.56073 23.5379 2.20274 24.149 3.10463C25.2523 3.33926 26.1176 3.79133 26.7814 4.47804C27.4635 5.16248 27.9191 6.06093 28.1365 7.14705C29.059 7.75593 29.7182 8.53647 30.0959 9.47274C30.4645 10.3529 30.5492 11.36 30.3454 12.405C30.936 13.3022 31.2358 14.2511 31.2358 15.232C31.2358 16.2163 30.9222 17.18 30.3041 18.1047C30.5307 19.2046 30.4415 20.2244 30.034 21.1435C29.6724 22.0144 29.0268 22.771 28.1227 23.3833C27.8647 24.568 27.4293 25.3267 26.7722 25.9962C26.074 26.692 25.1721 27.1522 24.0825 27.3684C23.4736 28.2898 22.6954 28.9479 21.7592 29.3267C20.8802 29.6963 19.8776 29.7834 18.8292 29.5773C17.9746 30.1261 17.0276 30.468 16 30.468V30.468Z" fill="#FABE2C"/>
<path d="M16 30.468C14.9492 30.468 14.0132 30.121 13.125 29.5363C12.0308 29.7675 11.0031 29.6737 10.0852 29.265C9.21759 28.9033 8.46229 28.2613 7.85106 27.3594C6.74775 27.1247 5.88251 26.6727 5.21869 25.986C4.50488 25.261 4.06999 24.3148 3.86591 23.318C2.94113 22.7092 2.28193 21.9286 1.90424 20.9913C1.53569 20.1111 1.45099 19.104 1.65476 18.059C1.06416 17.1618 0.764362 16.2129 0.764362 15.232C0.764362 14.2477 1.07799 13.284 1.69601 12.3593C1.46943 11.2594 1.55866 10.2396 1.96612 9.32053C2.32779 8.45069 2.97098 7.6953 3.87286 7.08298C4.10632 5.97967 4.55957 5.11443 5.24628 4.45062C5.92837 3.76961 6.82799 3.31183 7.91755 3.09549C8.52643 2.17298 9.30471 1.51604 10.2409 1.13725C11.1222 0.770966 12.1294 0.681739 13.1731 0.886602C14.9654 -0.297964 17.0279 -0.307106 18.8728 0.92895C19.9647 0.70346 21.0039 0.796203 21.9126 1.19788C22.7825 1.56073 23.5379 2.20274 24.149 3.10463C25.2523 3.33926 26.1176 3.79133 26.7814 4.47804C27.4635 5.16248 27.9191 6.06093 28.1365 7.14705C29.059 7.75593 29.7182 8.53647 30.0959 9.47274C30.4645 10.3529 30.5492 11.36 30.3454 12.405C30.936 13.3022 31.2358 14.2511 31.2358 15.232C31.2358 16.2163 30.9222 17.18 30.3041 18.1047C30.5307 19.2046 30.4415 20.2244 30.034 21.1435C29.6724 22.0144 29.0268 22.771 28.1227 23.3833C27.8647 24.568 27.4293 25.3267 26.7722 25.9962C26.074 26.692 25.1721 27.1522 24.0825 27.3684C23.4736 28.2898 22.6954 28.9479 21.7592 29.3267C20.8802 29.6963 19.8776 29.7834 18.8292 29.5773C17.9746 30.1261 17.0276 30.468 16 30.468V30.468Z" fill="url(#paint2_linear_841_7393)"/>
<path d="M16 25.7801C10.1836 25.7801 5.45216 21.0486 5.45216 15.2322C5.45216 9.41579 10.1836 4.68433 16 4.68433C21.8165 4.68433 26.5479 9.41579 26.5479 15.2322C26.5479 21.0486 21.8165 25.7801 16 25.7801Z" fill="url(#paint3_linear_841_7393)" fill-opacity="0.16"/>
<path d="M16 25.6356C10.2635 25.6356 5.59669 20.9688 5.59669 15.2322C5.59669 9.49562 10.2635 4.82886 16 4.82886C21.7366 4.82886 26.4034 9.49562 26.4034 15.2322C26.4034 20.9688 21.7366 25.6356 16 25.6356Z" stroke="url(#paint4_linear_841_7393)" stroke-opacity="0.12" stroke-width="0.289062"/>
<path d="M17.8701 19.5916L16 18.6199L14.1298 19.5916C13.7383 19.7942 13.2599 19.7587 12.9006 19.5C12.5412 19.2391 12.3604 18.7973 12.4336 18.3601L12.777 16.2782L11.2777 14.7983C10.9514 14.4802 10.8516 14.0085 10.9847 13.6012C11.1221 13.18 11.486 12.871 11.9255 12.8046L14.0085 12.491L14.9516 10.606C15.3499 9.81168 16.65 9.81168 17.0483 10.606L17.9914 12.491L20.0744 12.8046C20.5139 12.871 20.8779 13.18 21.0152 13.6012C21.1526 14.0235 21.0404 14.487 20.7222 14.7983L19.2229 16.2782L19.5663 18.3601C19.6396 18.7973 19.4587 19.2391 19.0993 19.5C18.7424 19.7587 18.2648 19.7969 17.8701 19.5916V19.5916Z" fill="url(#paint5_linear_841_7393)"/>
<defs>
<linearGradient id="paint0_linear_841_7393" x1="16.0612" y1="20.2372" x2="31.125" y2="21.0394" gradientUnits="userSpaceOnUse">
<stop stop-color="white" stop-opacity="0.37"/>
<stop offset="1" stop-color="white"/>
</linearGradient>
<linearGradient id="paint1_linear_841_7393" x1="0.636798" y1="20.2908" x2="15.7013" y2="21.0953" gradientUnits="userSpaceOnUse">
<stop stop-color="white" stop-opacity="0.37"/>
<stop offset="1" stop-color="white"/>
</linearGradient>
<linearGradient id="paint2_linear_841_7393" x1="22.2506" y1="3.69481e-08" x2="5.45625" y2="26.5833" gradientUnits="userSpaceOnUse">
<stop stop-color="#131416"/>
<stop offset="1" stop-color="#1A1B1F"/>
</linearGradient>
<linearGradient id="paint3_linear_841_7393" x1="4.64078" y1="0.465175" x2="26.9179" y2="1.83608" gradientUnits="userSpaceOnUse">
<stop stop-color="white" stop-opacity="0.37"/>
<stop offset="1" stop-color="white"/>
</linearGradient>
<linearGradient id="paint4_linear_841_7393" x1="4.64078" y1="0.465175" x2="26.9179" y2="1.83608" gradientUnits="userSpaceOnUse">
<stop stop-color="white" stop-opacity="0.37"/>
<stop offset="1" stop-color="white"/>
</linearGradient>
<linearGradient id="paint5_linear_841_7393" x1="21.0729" y1="10.0103" x2="10.1995" y2="16.1292" gradientUnits="userSpaceOnUse">
<stop stop-color="#B0FF4D"/>
<stop offset="1" stop-color="#FFE926"/>
</linearGradient>
</defs>
</svg>
