<svg xmlns="http://www.w3.org/2000/svg" viewBox="0 0 64 64"><path fill="#457abe" d="M23.5 12.188a.496.496 0 0 1-.25-.067l-4.5-2.598a.498.498 0 0 1-.25-.432V3.895a.5.5 0 0 1 .25-.433l4.5-2.599a.497.497 0 0 1 .5 0l4.5 2.599a.5.5 0 0 1 .25.433v5.196a.5.5 0 0 1-.25.433l-4.5 2.598a.505.505 0 0 1-.25.066zm-4-3.386 4 2.31 4-2.31V4.184l-4-2.311-4 2.311v4.618z"/><path fill="#457abe" d="M23.5 12.179a.5.5 0 0 1-.5-.5v-1.383a.5.5 0 0 1 1 0v1.383a.5.5 0 0 1-.5.5zm-2.995-6.892a.494.494 0 0 1-.25-.067l-1.492-.861a.5.5 0 1 1 .5-.866l1.492.861a.5.5 0 0 1-.25.933zm5.962 0a.5.5 0 0 1-.25-.933l1.492-.861a.498.498 0 0 1 .683.183.498.498 0 0 1-.183.683l-1.492.861a.494.494 0 0 1-.25.067zm-2.967-.29a.5.5 0 0 1-.5-.5v-.5a.5.5 0 0 1 1 0v.5a.5.5 0 0 1-.5.5zm-.003 4.306a.5.5 0 0 1-.5-.5v-.706a.5.5 0 0 1 1 0v.706a.5.5 0 0 1-.5.5z"/><path fill="#457abe" d="M23.837 6.89h-.649c-.693 0-1.258-.562-1.258-1.251s.564-1.25 1.258-1.25h1.378a.5.5 0 0 1 0 1h-1.378a.254.254 0 0 0-.258.25c0 .139.115.251.258.251h.649a.5.5 0 0 1 0 1z"/><path fill="#457abe" d="M23.817 8.386H22.43a.5.5 0 0 1 0-1h1.388a.248.248 0 1 0-.001-.496h-.427a.5.5 0 0 1 0-1h.428c.688 0 1.248.56 1.248 1.248s-.56 1.248-1.249 1.248zM36.5 63h-27a.5.5 0 0 1-.5-.5v-45a.5.5 0 0 1 .5-.5h27a.5.5 0 0 1 .5.5v45a.5.5 0 0 1-.5.5zM10 62h26V18H10v44z"/><path fill="#457abe" d="M54.5 63h-18a.5.5 0 0 1-.5-.5v-33a.5.5 0 0 1 .5-.5h18a.5.5 0 0 1 .5.5v33a.5.5 0 0 1-.5.5zM37 62h17V30H37v32zm-3.5-44h-21a.5.5 0 0 1-.5-.5v-3a.5.5 0 0 1 .5-.5h21a.5.5 0 0 1 .5.5v3a.5.5 0 0 1-.5.5zM13 17h20v-2H13v2z"/><path fill="#457abe" d="M51.5 30h-12a.5.5 0 0 1-.5-.5v-3a.5.5 0 0 1 .5-.5h12a.5.5 0 0 1 .5.5v3a.5.5 0 0 1-.5.5zM40 29h11v-2H40v2zM26.521 15h-6a.5.5 0 0 1-.5-.5V9.969a.5.5 0 0 1 1 0V14h5V9.969a.5.5 0 0 1 1 0V14.5a.5.5 0 0 1-.5.5zm-11 9h-3a.5.5 0 0 1 0-1h2.5v-2.5a.5.5 0 0 1 1 0v3a.5.5 0 0 1-.5.5zm6 0h-3a.5.5 0 0 1 0-1h2.5v-2.5a.5.5 0 0 1 1 0v3a.5.5 0 0 1-.5.5zm6 0h-3a.5.5 0 0 1 0-1h2.5v-2.5a.5.5 0 0 1 1 0v3a.5.5 0 0 1-.5.5zm14 11h-2a.5.5 0 0 1 0-1h1.5v-1.5a.5.5 0 0 1 1 0v2a.5.5 0 0 1-.5.5zm5 0h-2a.5.5 0 0 1 0-1h1.5v-1.5a.5.5 0 0 1 1 0v2a.5.5 0 0 1-.5.5zm5 0h-2a.5.5 0 0 1 0-1h1.5v-1.5a.5.5 0 0 1 1 0v2a.5.5 0 0 1-.5.5zm-10 5h-2a.5.5 0 0 1 0-1h1.5v-1.5a.5.5 0 0 1 1 0v2a.5.5 0 0 1-.5.5zm5 0h-2a.5.5 0 0 1 0-1h1.5v-1.5a.5.5 0 0 1 1 0v2a.5.5 0 0 1-.5.5zm5 0h-2a.5.5 0 0 1 0-1h1.5v-1.5a.5.5 0 0 1 1 0v2a.5.5 0 0 1-.5.5zm-10 5h-2a.5.5 0 0 1 0-1h1.5v-1.5a.5.5 0 0 1 1 0v2a.5.5 0 0 1-.5.5zm5 0h-2a.5.5 0 0 1 0-1h1.5v-1.5a.5.5 0 0 1 1 0v2a.5.5 0 0 1-.5.5zm5 0h-2a.5.5 0 0 1 0-1h1.5v-1.5a.5.5 0 0 1 1 0v2a.5.5 0 0 1-.5.5zm-10 5h-2a.5.5 0 0 1 0-1h1.5v-1.5a.5.5 0 0 1 1 0v2a.5.5 0 0 1-.5.5zm5 0h-2a.5.5 0 0 1 0-1h1.5v-1.5a.5.5 0 0 1 1 0v2a.5.5 0 0 1-.5.5zm5 0h-2a.5.5 0 0 1 0-1h1.5v-1.5a.5.5 0 0 1 1 0v2a.5.5 0 0 1-.5.5zm-10 5h-2a.5.5 0 0 1 0-1h1.5v-1.5a.5.5 0 0 1 1 0v2a.5.5 0 0 1-.5.5zm5 0h-2a.5.5 0 0 1 0-1h1.5v-1.5a.5.5 0 0 1 1 0v2a.5.5 0 0 1-.5.5zm5 0h-2a.5.5 0 0 1 0-1h1.5v-1.5a.5.5 0 0 1 1 0v2a.5.5 0 0 1-.5.5zm-10 5h-2a.5.5 0 0 1 0-1h1.5v-1.5a.5.5 0 0 1 1 0v2a.5.5 0 0 1-.5.5zm5 0h-2a.5.5 0 0 1 0-1h1.5v-1.5a.5.5 0 0 1 1 0v2a.5.5 0 0 1-.5.5zm5 0h-2a.5.5 0 0 1 0-1h1.5v-1.5a.5.5 0 0 1 1 0v2a.5.5 0 0 1-.5.5zm-18-36h-3a.5.5 0 0 1 0-1h2.5v-2.5a.5.5 0 0 1 1 0v3a.5.5 0 0 1-.5.5zm-18 6h-3a.5.5 0 0 1 0-1h2.5v-2.5a.5.5 0 0 1 1 0v3a.5.5 0 0 1-.5.5zm6 0h-3a.5.5 0 0 1 0-1h2.5v-2.5a.5.5 0 0 1 1 0v3a.5.5 0 0 1-.5.5zm6 0h-3a.5.5 0 0 1 0-1h2.5v-2.5a.5.5 0 0 1 1 0v3a.5.5 0 0 1-.5.5zm6 0h-3a.5.5 0 0 1 0-1h2.5v-2.5a.5.5 0 0 1 1 0v3a.5.5 0 0 1-.5.5zm-18 6h-3a.5.5 0 0 1 0-1h2.5v-2.5a.5.5 0 0 1 1 0v3a.5.5 0 0 1-.5.5zm6 0h-3a.5.5 0 0 1 0-1h2.5v-2.5a.5.5 0 0 1 1 0v3a.5.5 0 0 1-.5.5zm6 0h-3a.5.5 0 0 1 0-1h2.5v-2.5a.5.5 0 0 1 1 0v3a.5.5 0 0 1-.5.5zm6 0h-3a.5.5 0 0 1 0-1h2.5v-2.5a.5.5 0 0 1 1 0v3a.5.5 0 0 1-.5.5zm-18 6h-3a.5.5 0 0 1 0-1h2.5v-2.5a.5.5 0 0 1 1 0v3a.5.5 0 0 1-.5.5zm6 0h-3a.5.5 0 0 1 0-1h2.5v-2.5a.5.5 0 0 1 1 0v3a.5.5 0 0 1-.5.5zm6 0h-3a.5.5 0 0 1 0-1h2.5v-2.5a.5.5 0 0 1 1 0v3a.5.5 0 0 1-.5.5zm6 0h-3a.5.5 0 0 1 0-1h2.5v-2.5a.5.5 0 0 1 1 0v3a.5.5 0 0 1-.5.5zm-18 6h-3a.5.5 0 0 1 0-1h2.5v-2.5a.5.5 0 0 1 1 0v3a.5.5 0 0 1-.5.5zm6 0h-3a.5.5 0 0 1 0-1h2.5v-2.5a.5.5 0 0 1 1 0v3a.5.5 0 0 1-.5.5zm6 0h-3a.5.5 0 0 1 0-1h2.5v-2.5a.5.5 0 0 1 1 0v3a.5.5 0 0 1-.5.5zm6 0h-3a.5.5 0 0 1 0-1h2.5v-2.5a.5.5 0 0 1 1 0v3a.5.5 0 0 1-.5.5zm-18 6h-3a.5.5 0 0 1 0-1h2.5v-2.5a.5.5 0 0 1 1 0v3a.5.5 0 0 1-.5.5zm18 .204h-3a.5.5 0 0 1 0-1h2.5v-2.5a.5.5 0 0 1 1 0v3a.5.5 0 0 1-.5.5zm-18 5.796h-3a.5.5 0 0 1 0-1h2.5v-2.5a.5.5 0 0 1 1 0v3a.5.5 0 0 1-.5.5zm18 .204h-3a.5.5 0 0 1 0-1h2.5v-2.5a.5.5 0 0 1 1 0v3a.5.5 0 0 1-.5.5zM27.5 63h-9a.5.5 0 0 1-.5-.5v-12a.5.5 0 0 1 .5-.5h9a.5.5 0 0 1 .5.5v12a.5.5 0 0 1-.5.5zM19 62h8V51h-8v11z"/><path fill="#457abe" d="M23.021 63a.5.5 0 0 1-.5-.5v-12a.5.5 0 0 1 1 0v12a.5.5 0 0 1-.5.5z"/></svg>